<?xml version="1.0" encoding="UTF-8" standalone="no"?>
<svg
   id="Layer_1"
   data-name="Layer 1"
   viewBox="0 0 1374.3723 209.66457"
   version="1.1"
   sodipodi:docname="icon_left_brand.svg"
   inkscape:version="1.3.2 (091e20ef0f, 2023-11-25)"
   width="1374.3723"
   height="209.66457"
   xmlns:inkscape="http://www.inkscape.org/namespaces/inkscape"
   xmlns:sodipodi="http://sodipodi.sourceforge.net/DTD/sodipodi-0.dtd"
   xmlns="http://www.w3.org/2000/svg"
   xmlns:svg="http://www.w3.org/2000/svg">
  <sodipodi:namedview
     id="namedview18"
     pagecolor="#ffffff"
     bordercolor="#000000"
     borderopacity="0.25"
     inkscape:showpageshadow="2"
     inkscape:pageopacity="0.0"
     inkscape:pagecheckerboard="0"
     inkscape:deskcolor="#d1d1d1"
     inkscape:zoom="1"
     inkscape:cx="781.49998"
     inkscape:cy="-5.4999999"
     inkscape:window-width="2544"
     inkscape:window-height="1424"
     inkscape:window-x="0"
     inkscape:window-y="0"
     inkscape:window-maximized="1"
     inkscape:current-layer="Layer_1" />
  <defs
     id="defs1">
    <style
       id="style1">.cls-1{fill:#fd4b2d;}</style>
  </defs>
  <path
     class="cls-1"
     d="m 378.9581,73.493 h 20.78 v 82.84 h -20.78 v -8.76 a 40.79,40.79 0 0 1 -12.21,8.34 34.14,34.14 0 0 1 -13.27,2.55 q -16.05,0 -27.76,-12.45 -11.71,-12.45 -11.71,-30.92 0,-19.18 11.33,-31.45 11.33,-12.27 27.53,-12.26 a 34.94,34.94 0 0 1 14,2.82 38.32,38.32 0 0 1 12.1,8.45 z m -21.85,17.05 a 21,21 0 0 0 -16,6.82 q -6.37,6.81 -6.38,17.47 -0.01,10.66 6.51,17.66 a 21,21 0 0 0 16,6.93 21.42,21.42 0 0 0 16.24,-6.81 q 6.45,-6.81 6.45,-17.86 0,-10.8 -6.45,-17.51 a 21.71,21.71 0 0 0 -16.37,-6.7 z"
     id="path1"
     style="display:none;fill:#cba6f7;fill-opacity:1" />
  <path
     class="cls-1"
     d="m 430.0381,73.493 h 21 v 39.89 q 0,11.65 1.6,16.18 a 14.16,14.16 0 0 0 5.16,7 14.76,14.76 0 0 0 8.74,2.51 15.25,15.25 0 0 0 8.81,-2.48 14.49,14.49 0 0 0 5.38,-7.27 q 1.31,-3.57 1.3,-15.3 v -40.53 h 20.79 v 35.1 q 0,21.69 -3.43,29.69 a 32.32,32.32 0 0 1 -12.33,15 q -8.16,5.22 -20.71,5.22 -13.64,0 -22.05,-6.09 a 32.2,32.2 0 0 1 -11.84,-17 q -2.43,-7.55 -2.43,-27.41 z"
     id="path2"
     style="display:none;fill:#cba6f7;fill-opacity:1" />
  <path
     class="cls-1"
     d="m 535.5581,42.953 h 20.78 v 30.54 h 12.34 v 17.89 h -12.34 v 65 h -20.78 v -65 h -10.66 v -17.89 h 10.66 z"
     id="path3"
     style="display:none;fill:#cba6f7;fill-opacity:1" />
  <path
     class="cls-1"
     d="m 589.2381,41.513 h 20.63 v 40.35 a 47.41,47.41 0 0 1 12.26,-7.88 31.62,31.62 0 0 1 12.49,-2.63 28.13,28.13 0 0 1 20.78,8.53 q 7.23,7.4 7.24,21.7 v 54.75 h -20.5 v -36.32 q 0,-14.4 -1.37,-19.49 a 13.6,13.6 0 0 0 -4.68,-7.62 13.19,13.19 0 0 0 -8.18,-2.51 15.43,15.43 0 0 0 -10.85,4.19 22.14,22.14 0 0 0 -6.28,11.42 q -0.91,3.72 -0.92,17 v 33.28 h -20.62 z"
     id="path4"
     style="display:none;fill:#cba6f7;fill-opacity:1" />
  <path
     class="cls-1"
     d="m 775.0781,120.923 h -66.78 a 22.25,22.25 0 0 0 7.73,14 q 6.29,5.22 16,5.21 a 27.7,27.7 0 0 0 20,-8.14 l 17.51,8.22 a 41.31,41.31 0 0 1 -15.68,13.74 q -9.13,4.46 -21.7,4.46 -19.5,0 -31.75,-12.3 -12.25,-12.3 -12.17,-30.75 0,-19 12.22,-31.48 12.22,-12.48 30.65,-12.53 19.56,0 31.82,12.53 12.26,12.53 12.26,33.08 z m -20.79,-16.37 a 20.87,20.87 0 0 0 -8.12,-11.27 23.61,23.61 0 0 0 -14.08,-4.34 24.88,24.88 0 0 0 -15.25,4.88 q -4.11,3 -7.62,10.73 z"
     id="path5"
     style="display:none;fill:#cba6f7;fill-opacity:1" />
  <path
     class="cls-1"
     d="m 801.2381,73.493 h 20.8 v 8.49 a 50.15,50.15 0 0 1 12.81,-8.3 31.08,31.08 0 0 1 11.75,-2.33 28.44,28.44 0 0 1 20.91,8.61 q 7.22,7.31 7.22,21.62 v 54.75 h -20.56 v -36.24 q 0,-14.83 -1.33,-19.7 a 13.48,13.48 0 0 0 -4.6,-7.45 13,13 0 0 0 -8.16,-2.55 15.32,15.32 0 0 0 -10.84,4.22 22.6,22.6 0 0 0 -6.27,11.67 q -0.9,3.89 -0.91,16.81 v 33.24 h -20.82 z"
     id="path6"
     style="display:none;fill:#cba6f7;fill-opacity:1" />
  <path
     class="cls-1"
     d="m 906.6981,42.953 h 20.79 v 30.54 h 12.33 v 17.89 h -12.33 v 65 h -20.79 v -65 h -10.66 v -17.89 h 10.66 z"
     id="path7"
     style="display:none;fill:#cba6f7;fill-opacity:1" />
  <path
     class="cls-1"
     d="m 968.3981,39.383 a 12.74,12.74 0 0 1 9.38,3.95 13.18,13.18 0 0 1 3.91,9.6 13,13 0 0 1 -3.87,9.48 12.6,12.6 0 0 1 -9.27,3.92 12.73,12.73 0 0 1 -9.45,-4 13.39,13.39 0 0 1 -3.86,-9.71 12.78,12.78 0 0 1 3.87,-9.36 12.71,12.71 0 0 1 9.29,-3.88 z"
     id="path8"
     style="display:none;fill:#cba6f7;fill-opacity:1" />
  <rect
     class="cls-1"
     x="958.00812"
     y="73.493004"
     width="20.790001"
     height="82.839996"
     id="rect8"
     style="display:none;fill:#cba6f7;fill-opacity:1" />
  <path
     class="cls-1"
     d="m 1007.2381,41.513 h 20.78 v 66.13 l 30.56,-34.15 h 26.11 l -35.69,39.7 40,43.14 h -25.8 l -35.23,-38.18 v 38.18 h -20.73 z"
     id="path9"
     style="display:none;fill:#cba6f7;fill-opacity:1" />
  <rect
     class="cls-1"
     x="201.3381"
     y="58.022999"
     width="6.3699999"
     height="18.200001"
     id="rect9"
     style="fill:#8839ef;fill-opacity:1" />
  <rect
     class="cls-1"
     x="217.9081"
     y="57.252998"
     width="6.3699999"
     height="14.23"
     id="rect10"
     style="fill:#8839ef;fill-opacity:1" />
  <path
     class="cls-1"
     d="m 125.0681,78.093 a 23.23,23.23 0 0 0 -20.42,12.13 h 10.8 c 4.79,-4.13 11.73,-5.33 16.79,0 h 11.39 c -4.46,-6.04 -11.15,-12.13 -18.56,-12.13 z"
     id="path10"
     style="display:none" />
  <path
     class="cls-1"
     d="m 140.4881,101.203 c -14.89,31.15 -40.999996,4.6 -25,-11 h -10.84 c -8.469996,14.76 3.24,34.68 20.42,34.23 13.28,0 24.24,-19.72 24.24,-23.21 0,-1.54 -2.14,-6.25 -5.68,-11 h -11.39 a 40.52,40.52 0 0 1 8.25,10.98 z m 0.4,-0.91 z"
     id="path11"
     style="display:none" />
  <path
     class="cls-1"
     d="m 283.8581,57.803 v 82.29 c -0.0441,15.77514 -12.8448,28.54006 -28.62,28.54 h -12.11 -57.95 -12.13 c -15.76349,-0.0165 -28.54595,-12.77656 -28.59,-28.54 v -25.92 h 91.87 v -49.46 h -44.35 v 27.79 h -47.52 v -34.7 c -0.003,-1.099483 0.0608,-2.198132 0.19,-3.29 0.14398,-1.295414 0.38126,-2.578747 0.71,-3.84 0.1,-0.41 0.22,-0.82 0.34,-1.21 0.0226,-0.102073 0.0527,-0.202344 0.09,-0.3 0.07,-0.21 0.13,-0.4 0.2,-0.59 0.07,-0.19 0.14,-0.4 0.21,-0.59 0.07,-0.19 0.16,-0.44 0.25,-0.65 0.09,-0.21 0.18,-0.43 0.26,-0.64 0.71455,-1.684189 1.585,-3.297879 2.6,-4.82 v -0.05 c 0.26,-0.37 0.53,-0.75 0.81,-1.12 0.28,-0.37 0.47,-0.61 0.7,-0.91 0.23,-0.3 0.57,-0.67 0.86,-1 0.29,-0.33 0.56,-0.63 0.86,-0.93 v 0 c 0.15058,-0.175605 0.3144,-0.339417 0.49,-0.49 1.05986,-1.031311 2.19646,-1.980704 3.4,-2.84 0.32,-0.24 0.66,-0.46 1,-0.68 0.34,-0.22 0.77,-0.49 1.17,-0.72 0.74079,-0.444634 1.50525,-0.848567 2.29,-1.21 l 0.75,-0.34 c 1.08969,-0.474426 2.20865,-0.878586 3.35,-1.21 0.44,-0.13 0.88,-0.24 1.33,-0.35 0.21381,-0.06165 0.43079,-0.11172 0.65,-0.15 1.27562,-0.277307 2.56859,-0.467744 3.87,-0.57 h 0.56 0.28 1.31 82.25 1.3 0.28 0.56 c 1.30463,0.102988 2.60087,0.293416 3.88,0.57 0.22,0 0.43,0.09 0.65,0.15 0.45,0.11 0.88,0.22 1.32,0.35 1.14188,0.32979 2.26094,0.733988 3.35,1.21 l 0.75,0.34 c 0.78698,0.36349 1.55466,0.76736 2.3,1.21 0.39,0.23 0.78,0.47 1.16,0.72 0.38,0.25 0.69,0.44 1,0.68 1.39975,1.002654 2.70817,2.127026 3.91,3.36 0.3,0.3 0.59,0.61 0.87,0.93 0.29,0.32 0.57,0.66 0.85,1 l 0.71,0.91 c 0.28,0.37 0.54,0.75 0.8,1.12 v 0.05 c 1.0188,1.519831 1.88946,3.13389 2.6,4.82 l 0.27,0.64 0.24,0.65 c 0.08,0.19 0.15,0.39 0.22,0.59 l 0.19,0.59 c 0,0.09 0.06,0.19 0.1,0.3 0.11,0.39 0.23,0.8 0.34,1.21 0.32063,1.262539 0.55451,2.545534 0.7,3.84 0.1548,1.080325 0.24496,2.168928 0.27,3.26 z"
     id="path12"
     style="fill:#8839ef;fill-opacity:1"
     sodipodi:nodetypes="ccscccccccccccccccssscccsssssccsccccccccccccccccccccscccccccccccccccc" />
  <path
     class="cls-1"
     d="m 278.9981,41.873 h -129.69 a 28.59,28.59 0 0 1 23.73,-12.66 h 82.2 a 28.59,28.59 0 0 1 23.76,12.66 z"
     id="path13"
     style="fill:#8839ef;fill-opacity:1" />
  <path
     class="cls-1"
     d="m 283.6681,54.523 h -139.03 a 28.29,28.29 0 0 1 4.67,-12.65 h 129.69 a 28.17,28.17 0 0 1 4.67,12.65 z"
     id="path14"
     style="fill:#8839ef;fill-opacity:1" />
  <path
     class="cls-1"
     d="m 283.8681,57.803 v 9.37 h -47.54 v -2.46 h -44.35 v 2.46 h -47.53 v -9.37 a 27.43,27.43 0 0 1 0.19,-3.29 h 139 a 27.42,27.42 0 0 1 0.23,3.29 z"
     id="path15"
     style="fill:#8839ef;fill-opacity:1" />
  <rect
     class="cls-1"
     x="144.4481"
     y="67.173004"
     width="47.540001"
     height="12.66"
     id="rect15"
     style="fill:#8839ef;fill-opacity:1" />
  <rect
     class="cls-1"
     x="236.32809"
     y="67.173004"
     width="47.540001"
     height="12.66"
     id="rect16"
     style="fill:#8839ef;fill-opacity:1" />
  <rect
     class="cls-1"
     x="144.4481"
     y="79.833"
     width="47.540001"
     height="12.65"
     id="rect17"
     style="fill:#8839ef;fill-opacity:1" />
  <rect
     class="cls-1"
     x="236.32809"
     y="79.833"
     width="47.540001"
     height="12.65"
     id="rect18"
     style="fill:#8839ef;fill-opacity:1" />
  <path
     style="display:inline;fill:#8839ef;fill-opacity:1"
     d="m 144.4481,57.803 c -35.45674,-110.502034 28.59,-28.59 28.59,-28.59"
     id="path20"
     sodipodi:nodetypes="cc"
     inkscape:label="Left Ear" />
  <path
     style="display:inline;fill:#8839ef;fill-opacity:1"
     d="m 283.8281,57.802509 c 35.45675,-110.502034 -28.59,-28.59 -28.59,-28.59"
     id="path20-5"
     sodipodi:nodetypes="cc"
     inkscape:label="Right Ear" />
  <path
     style="display:none;fill:#fd4b2b;fill-opacity:1"
     d="m 231.29451,29.839368 c 11.75882,-60.165906 30.7709,-64.960396 30.72041,-0.08829"
     id="path21"
     sodipodi:nodetypes="cc" />
  <path
     style="display:none;fill:#fd4b2b;fill-opacity:1"
     d="m 191.55352,31.092125 c -11.75882,-60.165906 -30.7709,-64.960401 -30.72041,-0.08829"
     id="path21-6"
     sodipodi:nodetypes="cc"
     inkscape:label="path21-6" />
  <path
     style="display:inline;fill:#8839ef;fill-opacity:1"
     id="path22"
     d="m 144.4581,92.503 c -27.41157,-0.04521 -63.065745,11.85584 -62.864987,31.45794 0.120037,12.7924 20.648437,23.60606 24.160607,36.63932 1.61842,10.99895 -40.850299,2.79881 -57.802544,2.82316 -42.4680267,0.43535 -55.8391617,36.6735 -43.6241257,40.84727 7.8981387,2.01635 3.807954,-16.36907 8.7220507,-14.90107 7.832355,1.42337 -2.040066,16.60842 6.376957,19.87249 19.897488,4.1574 112.537632,-23.13003 110.470372,-48.41816 -2.30249,-15.389 -20.07506,-20.84648 -27.23714,-35.1587 -3.137682,-11.44039 32.38973,-10.30538 41.79881,-11.49225 0.002,1.77496 0.19123,-7.73812 0,-21.67 z"
     sodipodi:nodetypes="ccccccccccc" />
  <path
     style="display:none;fill:#fd4b2b;fill-opacity:1"
     d="m 145.81193,103.34055 c 0,0 -90.182055,-14.789879 -47.669109,17.70461 42.512949,32.49449 42.095269,24.10742 31.815889,36.52727 C 119.67934,169.99228 21.403028,194.4026 21.403028,194.4026"
     id="path24"
     sodipodi:nodetypes="czsc" />
  <text
     xml:space="preserve"
     style="font-style:normal;font-variant:normal;font-weight:bold;font-stretch:normal;font-size:146.667px;font-family:Comfortaa;-inkscape-font-specification:'Comfortaa Bold';fill:#8839ef;fill-opacity:1"
     x="310.30383"
     y="144.46608"
     id="text1"><tspan
       sodipodi:role="line"
       id="tspan1"
       x="310.30383"
       y="144.46608">feline systems</tspan></text>
  <text
     xml:space="preserve"
     style="font-style:normal;font-variant:normal;font-weight:bold;font-stretch:normal;font-size:64px;font-family:Comfortaa;-inkscape-font-specification:'Comfortaa Bold';fill:#8839ef;fill-opacity:1"
     x="940.32367"
     y="201.47935"
     id="text2"><tspan
       sodipodi:role="line"
       id="tspan2"
       x="940.32367"
       y="201.47935">auth</tspan></text>
</svg>
