<?xml version="1.0" encoding="UTF-8" standalone="no"?>
<svg
   id="Layer_1"
   data-name="Layer 1"
   viewBox="0 0 1374.3723 209.66457"
   version="1.1"
   sodipodi:docname="auth.svg"
   inkscape:version="1.3.2 (091e20ef0f, 2023-11-25)"
   width="1374.3723"
   height="209.66457"
   xmlns:inkscape="http://www.inkscape.org/namespaces/inkscape"
   xmlns:sodipodi="http://sodipodi.sourceforge.net/DTD/sodipodi-0.dtd"
   xmlns="http://www.w3.org/2000/svg"
   xmlns:svg="http://www.w3.org/2000/svg">
  <sodipodi:namedview
     id="namedview18"
     pagecolor="#ffffff"
     bordercolor="#000000"
     borderopacity="0.25"
     inkscape:showpageshadow="2"
     inkscape:pageopacity="0.0"
     inkscape:pagecheckerboard="0"
     inkscape:deskcolor="#d1d1d1"
     inkscape:zoom="1"
     inkscape:cx="780.5"
     inkscape:cy="-5.5"
     inkscape:window-width="1908"
     inkscape:window-height="1024"
     inkscape:window-x="0"
     inkscape:window-y="0"
     inkscape:window-maximized="0"
     inkscape:current-layer="Layer_1" />
  <defs
     id="defs1">
    <style
       id="style1">.cls-1{fill:#fd4b2d;}</style>
  </defs>
  <path
     class="cls-1"
     d="m 378.9581,73.493 h 20.78 v 82.84 h -20.78 v -8.76 a 40.79,40.79 0 0 1 -12.21,8.34 34.14,34.14 0 0 1 -13.27,2.55 q -16.05,0 -27.76,-12.45 -11.71,-12.45 -11.71,-30.92 0,-19.18 11.33,-31.45 11.33,-12.27 27.53,-12.26 a 34.94,34.94 0 0 1 14,2.82 38.32,38.32 0 0 1 12.1,8.45 z m -21.85,17.05 a 21,21 0 0 0 -16,6.82 q -6.37,6.81 -6.38,17.47 -0.01,10.66 6.51,17.66 a 21,21 0 0 0 16,6.93 21.42,21.42 0 0 0 16.24,-6.81 q 6.45,-6.81 6.45,-17.86 0,-10.8 -6.45,-17.51 a 21.71,21.71 0 0 0 -16.37,-6.7 z"
     id="path1"
     style="display:none;fill:#cba6f7;fill-opacity:1" />
  <path
     class="cls-1"
     d="m 430.0381,73.493 h 21 v 39.89 q 0,11.65 1.6,16.18 a 14.16,14.16 0 0 0 5.16,7 14.76,14.76 0 0 0 8.74,2.51 15.25,15.25 0 0 0 8.81,-2.48 14.49,14.49 0 0 0 5.38,-7.27 q 1.31,-3.57 1.3,-15.3 v -40.53 h 20.79 v 35.1 q 0,21.69 -3.43,29.69 a 32.32,32.32 0 0 1 -12.33,15 q -8.16,5.22 -20.71,5.22 -13.64,0 -22.05,-6.09 a 32.2,32.2 0 0 1 -11.84,-17 q -2.43,-7.55 -2.43,-27.41 z"
     id="path2"
     style="display:none;fill:#cba6f7;fill-opacity:1" />
  <path
     class="cls-1"
     d="m 535.5581,42.953 h 20.78 v 30.54 h 12.34 v 17.89 h -12.34 v 65 h -20.78 v -65 h -10.66 v -17.89 h 10.66 z"
     id="path3"
     style="display:none;fill:#cba6f7;fill-opacity:1" />
  <path
     class="cls-1"
     d="m 589.2381,41.513 h 20.63 v 40.35 a 47.41,47.41 0 0 1 12.26,-7.88 31.62,31.62 0 0 1 12.49,-2.63 28.13,28.13 0 0 1 20.78,8.53 q 7.23,7.4 7.24,21.7 v 54.75 h -20.5 v -36.32 q 0,-14.4 -1.37,-19.49 a 13.6,13.6 0 0 0 -4.68,-7.62 13.19,13.19 0 0 0 -8.18,-2.51 15.43,15.43 0 0 0 -10.85,4.19 22.14,22.14 0 0 0 -6.28,11.42 q -0.91,3.72 -0.92,17 v 33.28 h -20.62 z"
     id="path4"
     style="display:none;fill:#cba6f7;fill-opacity:1" />
  <path
     class="cls-1"
     d="m 775.0781,120.923 h -66.78 a 22.25,22.25 0 0 0 7.73,14 q 6.29,5.22 16,5.21 a 27.7,27.7 0 0 0 20,-8.14 l 17.51,8.22 a 41.31,41.31 0 0 1 -15.68,13.74 q -9.13,4.46 -21.7,4.46 -19.5,0 -31.75,-12.3 -12.25,-12.3 -12.17,-30.75 0,-19 12.22,-31.48 12.22,-12.48 30.65,-12.53 19.56,0 31.82,12.53 12.26,12.53 12.26,33.08 z m -20.79,-16.37 a 20.87,20.87 0 0 0 -8.12,-11.27 23.61,23.61 0 0 0 -14.08,-4.34 24.88,24.88 0 0 0 -15.25,4.88 q -4.11,3 -7.62,10.73 z"
     id="path5"
     style="display:none;fill:#cba6f7;fill-opacity:1" />
  <path
     class="cls-1"
     d="m 801.2381,73.493 h 20.8 v 8.49 a 50.15,50.15 0 0 1 12.81,-8.3 31.08,31.08 0 0 1 11.75,-2.33 28.44,28.44 0 0 1 20.91,8.61 q 7.22,7.31 7.22,21.62 v 54.75 h -20.56 v -36.24 q 0,-14.83 -1.33,-19.7 a 13.48,13.48 0 0 0 -4.6,-7.45 13,13 0 0 0 -8.16,-2.55 15.32,15.32 0 0 0 -10.84,4.22 22.6,22.6 0 0 0 -6.27,11.67 q -0.9,3.89 -0.91,16.81 v 33.24 h -20.82 z"
     id="path6"
     style="display:none;fill:#cba6f7;fill-opacity:1" />
  <path
     class="cls-1"
     d="m 906.6981,42.953 h 20.79 v 30.54 h 12.33 v 17.89 h -12.33 v 65 h -20.79 v -65 h -10.66 v -17.89 h 10.66 z"
     id="path7"
     style="display:none;fill:#cba6f7;fill-opacity:1" />
  <path
     class="cls-1"
     d="m 968.3981,39.383 a 12.74,12.74 0 0 1 9.38,3.95 13.18,13.18 0 0 1 3.91,9.6 13,13 0 0 1 -3.87,9.48 12.6,12.6 0 0 1 -9.27,3.92 12.73,12.73 0 0 1 -9.45,-4 13.39,13.39 0 0 1 -3.86,-9.71 12.78,12.78 0 0 1 3.87,-9.36 12.71,12.71 0 0 1 9.29,-3.88 z"
     id="path8"
     style="display:none;fill:#cba6f7;fill-opacity:1" />
  <rect
     class="cls-1"
     x="958.00812"
     y="73.493004"
     width="20.790001"
     height="82.839996"
     id="rect8"
     style="display:none;fill:#cba6f7;fill-opacity:1" />
  <path
     class="cls-1"
     d="m 1007.2381,41.513 h 20.78 v 66.13 l 30.56,-34.15 h 26.11 l -35.69,39.7 40,43.14 h -25.8 l -35.23,-38.18 v 38.18 h -20.73 z"
     id="path9"
     style="display:none;fill:#cba6f7;fill-opacity:1" />
  <rect
     class="cls-1"
     x="201.3381"
     y="58.022999"
     width="6.3699999"
     height="18.200001"
     id="rect9"
     style="fill:#8839ef;fill-opacity:1" />
  <rect
     class="cls-1"
     x="217.9081"
     y="57.252998"
     width="6.3699999"
     height="14.23"
     id="rect10"
     style="fill:#8839ef;fill-opacity:1" />
  <path
     class="cls-1"
     d="m 125.0681,78.093 a 23.23,23.23 0 0 0 -20.42,12.13 h 10.8 c 4.79,-4.13 11.73,-5.33 16.79,0 h 11.39 c -4.46,-6.04 -11.15,-12.13 -18.56,-12.13 z"
     id="path10"
     style="display:none" />
  <path
     class="cls-1"
     d="m 140.4881,101.203 c -14.89,31.15 -40.999996,4.6 -25,-11 h -10.84 c -8.469996,14.76 3.24,34.68 20.42,34.23 13.28,0 24.24,-19.72 24.24,-23.21 0,-1.54 -2.14,-6.25 -5.68,-11 h -11.39 a 40.52,40.52 0 0 1 8.25,10.98 z m 0.4,-0.91 z"
     id="path11"
     style="display:none" />
  <path
     class="cls-1"
     d="m 283.8581,57.803 v 82.29 c -0.0441,15.77514 -12.8448,28.54006 -28.62,28.54 h -12.11 -57.95 -12.13 c -15.76349,-0.0165 -28.54595,-12.77656 -28.59,-28.54 v -25.92 h 91.87 v -49.46 h -44.35 v 27.79 h -47.52 v -34.7 c -0.003,-1.099483 0.0608,-2.198132 0.19,-3.29 0.14398,-1.295414 0.38126,-2.578747 0.71,-3.84 0.1,-0.41 0.22,-0.82 0.34,-1.21 0.0226,-0.102073 0.0527,-0.202344 0.09,-0.3 0.07,-0.21 0.13,-0.4 0.2,-0.59 0.07,-0.19 0.14,-0.4 0.21,-0.59 0.07,-0.19 0.16,-0.44 0.25,-0.65 0.09,-0.21 0.18,-0.43 0.26,-0.64 0.71455,-1.684189 1.585,-3.297879 2.6,-4.82 v -0.05 c 0.26,-0.37 0.53,-0.75 0.81,-1.12 0.28,-0.37 0.47,-0.61 0.7,-0.91 0.23,-0.3 0.57,-0.67 0.86,-1 0.29,-0.33 0.56,-0.63 0.86,-0.93 v 0 c 0.15058,-0.175605 0.3144,-0.339417 0.49,-0.49 1.05986,-1.031311 2.19646,-1.980704 3.4,-2.84 0.32,-0.24 0.66,-0.46 1,-0.68 0.34,-0.22 0.77,-0.49 1.17,-0.72 0.74079,-0.444634 1.50525,-0.848567 2.29,-1.21 l 0.75,-0.34 c 1.08969,-0.474426 2.20865,-0.878586 3.35,-1.21 0.44,-0.13 0.88,-0.24 1.33,-0.35 0.21381,-0.06165 0.43079,-0.11172 0.65,-0.15 1.27562,-0.277307 2.56859,-0.467744 3.87,-0.57 h 0.56 0.28 1.31 82.25 1.3 0.28 0.56 c 1.30463,0.102988 2.60087,0.293416 3.88,0.57 0.22,0 0.43,0.09 0.65,0.15 0.45,0.11 0.88,0.22 1.32,0.35 1.14188,0.32979 2.26094,0.733988 3.35,1.21 l 0.75,0.34 c 0.78698,0.36349 1.55466,0.76736 2.3,1.21 0.39,0.23 0.78,0.47 1.16,0.72 0.38,0.25 0.69,0.44 1,0.68 1.39975,1.002654 2.70817,2.127026 3.91,3.36 0.3,0.3 0.59,0.61 0.87,0.93 0.29,0.32 0.57,0.66 0.85,1 l 0.71,0.91 c 0.28,0.37 0.54,0.75 0.8,1.12 v 0.05 c 1.0188,1.519831 1.88946,3.13389 2.6,4.82 l 0.27,0.64 0.24,0.65 c 0.08,0.19 0.15,0.39 0.22,0.59 l 0.19,0.59 c 0,0.09 0.06,0.19 0.1,0.3 0.11,0.39 0.23,0.8 0.34,1.21 0.32063,1.262539 0.55451,2.545534 0.7,3.84 0.1548,1.080325 0.24496,2.168928 0.27,3.26 z"
     id="path12"
     style="fill:#8839ef;fill-opacity:1"
     sodipodi:nodetypes="ccscccccccccccccccssscccsssssccsccccccccccccccccccccscccccccccccccccc" />
  <path
     class="cls-1"
     d="m 278.9981,41.873 h -129.69 a 28.59,28.59 0 0 1 23.73,-12.66 h 82.2 a 28.59,28.59 0 0 1 23.76,12.66 z"
     id="path13"
     style="fill:#8839ef;fill-opacity:1" />
  <path
     class="cls-1"
     d="m 283.6681,54.523 h -139.03 a 28.29,28.29 0 0 1 4.67,-12.65 h 129.69 a 28.17,28.17 0 0 1 4.67,12.65 z"
     id="path14"
     style="fill:#8839ef;fill-opacity:1" />
  <path
     class="cls-1"
     d="m 283.8681,57.803 v 9.37 h -47.54 v -2.46 h -44.35 v 2.46 h -47.53 v -9.37 a 27.43,27.43 0 0 1 0.19,-3.29 h 139 a 27.42,27.42 0 0 1 0.23,3.29 z"
     id="path15"
     style="fill:#8839ef;fill-opacity:1" />
  <rect
     class="cls-1"
     x="144.4481"
     y="67.173004"
     width="47.540001"
     height="12.66"
     id="rect15"
     style="fill:#8839ef;fill-opacity:1" />
  <rect
     class="cls-1"
     x="236.32809"
     y="67.173004"
     width="47.540001"
     height="12.66"
     id="rect16"
     style="fill:#8839ef;fill-opacity:1" />
  <rect
     class="cls-1"
     x="144.4481"
     y="79.833"
     width="47.540001"
     height="12.65"
     id="rect17"
     style="fill:#8839ef;fill-opacity:1" />
  <rect
     class="cls-1"
     x="236.32809"
     y="79.833"
     width="47.540001"
     height="12.65"
     id="rect18"
     style="fill:#8839ef;fill-opacity:1" />
  <path
     style="display:inline;fill:#8839ef;fill-opacity:1"
     d="m 144.4481,57.803 c -35.45674,-110.502034 28.59,-28.59 28.59,-28.59"
     id="path20"
     sodipodi:nodetypes="cc"
     inkscape:label="Left Ear" />
  <path
     style="display:inline;fill:#8839ef;fill-opacity:1"
     d="m 283.8281,57.802509 c 35.45675,-110.502034 -28.59,-28.59 -28.59,-28.59"
     id="path20-5"
     sodipodi:nodetypes="cc"
     inkscape:label="Right Ear" />
  <path
     style="display:none;fill:#fd4b2b;fill-opacity:1"
     d="m 231.29451,29.839368 c 11.75882,-60.165906 30.7709,-64.960396 30.72041,-0.08829"
     id="path21"
     sodipodi:nodetypes="cc" />
  <path
     style="display:none;fill:#fd4b2b;fill-opacity:1"
     d="m 191.55352,31.092125 c -11.75882,-60.165906 -30.7709,-64.960401 -30.72041,-0.08829"
     id="path21-6"
     sodipodi:nodetypes="cc"
     inkscape:label="path21-6" />
  <path
     style="display:inline;fill:#8839ef;fill-opacity:1"
     id="path22"
     d="m 144.4581,92.503 c -27.41157,-0.04521 -63.065745,11.85584 -62.864987,31.45794 0.120037,12.7924 20.648437,23.60606 24.160607,36.63932 1.61842,10.99895 -40.850299,2.79881 -57.802544,2.82316 -42.4680267,0.43535 -55.8391617,36.6735 -43.6241257,40.84727 7.8981387,2.01635 3.807954,-16.36907 8.7220507,-14.90107 7.832355,1.42337 -2.040066,16.60842 6.376957,19.87249 19.897488,4.1574 112.537632,-23.13003 110.470372,-48.41816 -2.30249,-15.389 -20.07506,-20.84648 -27.23714,-35.1587 -3.137682,-11.44039 32.38973,-10.30538 41.79881,-11.49225 0.002,1.77496 0.19123,-7.73812 0,-21.67 z"
     sodipodi:nodetypes="ccccccccccc" />
  <path
     style="display:none;fill:#fd4b2b;fill-opacity:1"
     d="m 145.81193,103.34055 c 0,0 -90.182055,-14.789879 -47.669109,17.70461 42.512949,32.49449 42.095269,24.10742 31.815889,36.52727 C 119.67934,169.99228 21.403028,194.4026 21.403028,194.4026"
     id="path24"
     sodipodi:nodetypes="czsc" />
  <path
     d="m 332.15722,144.46608 q -2.78668,0 -4.98668,-2.05334 -2.20001,-2.05334 -2.20001,-5.42668 V 79.785929 h -6.30668 q -3.08,0 -4.98668,-1.760004 -1.90667,-1.760004 -1.90667,-4.40001 0,-2.93334 1.90667,-4.693344 1.90668,-1.760004 4.98668,-1.760004 h 6.30668 v -2.493339 q 0,-10.560025 4.10668,-18.333376 4.25334,-7.773352 11.73336,-12.026695 7.48002,-4.40001 17.30671,-4.40001 3.22667,0 5.28001,1.906671 2.2,1.906671 2.2,4.840011 0,2.786673 -2.2,4.840011 -2.05334,1.906672 -5.28001,1.906672 -8.21335,0 -13.20003,5.426679 -4.98668,5.426679 -4.98668,14.373367 v 3.960009 h 14.96003 q 3.08001,0 4.98668,1.760004 1.90667,1.760004 1.90667,4.693344 0,2.640006 -1.90667,4.40001 -1.90667,1.760004 -4.98668,1.760004 h -14.96003 v 57.200131 q 0,3.37334 -2.05334,5.42668 -2.05334,2.05334 -5.72001,2.05334 z m 79.93354,0.58667 q -12.17337,0 -21.70672,-5.13335 -9.38669,-5.28001 -14.81337,-14.37336 -5.28001,-9.24003 -5.28001,-21.12005 0,-12.026698 4.98668,-21.120052 5.13334,-9.240022 14.08003,-14.373367 8.94669,-5.280012 20.53338,-5.280012 11.44003,0 19.65338,5.133345 8.21335,4.986678 12.46669,13.933366 4.40002,8.80002 4.40002,20.38671 0,2.78668 -1.90668,4.69335 -1.90667,1.76 -4.84001,1.76 h -55.73346 q 1.61334,10.12003 9.24002,16.57337 7.77335,6.30669 18.92005,6.30669 4.54667,0 9.24002,-1.61334 4.84001,-1.76001 7.77335,-3.96001 2.2,-1.61334 4.69334,-1.61334 2.64001,-0.14667 4.54668,1.46667 2.49334,2.20001 2.64001,4.84001 0.14666,2.64001 -2.34668,4.54668 -4.98667,3.96001 -12.46669,6.45335 -7.33335,2.49334 -14.08003,2.49334 z m -2.20001,-68.786829 q -10.85336,0 -17.45337,6.013348 -6.60002,6.013347 -8.36002,15.546702 h 48.84011 q -1.32,-9.386688 -7.18668,-15.400035 -5.86668,-6.160015 -15.84004,-6.160015 z m 74.65355,68.200159 q -6.45335,0 -11.44003,-3.52001 -4.98668,-3.52001 -7.77335,-9.53335 -2.78667,-6.16002 -2.78667,-14.08004 V 37.252497 q 0,-3.226674 2.05334,-5.280012 2.05333,-2.053338 5.28001,-2.053338 3.22667,0 5.28001,2.053338 2.05334,2.053338 2.05334,5.280012 v 80.080183 q 0,5.42668 2.05334,8.94669 2.05333,3.52001 5.28001,3.52001 h 3.66667 q 2.93334,0 4.69335,2.05334 1.90667,2.05334 1.90667,5.28001 0,3.22667 -2.78667,5.28001 -2.78668,2.05334 -7.18669,2.05334 z m 33.87996,0 q -3.22667,0 -5.42668,-2.05334 -2.05334,-2.2 -2.05334,-5.42668 V 71.719244 q 0,-3.373341 2.05334,-5.426679 2.20001,-2.053338 5.42668,-2.053338 3.37334,0 5.42668,2.053338 2.05334,2.053338 2.05334,5.426679 v 65.266816 q 0,3.22668 -2.05334,5.42668 -2.05334,2.05334 -5.42668,2.05334 z m 0,-93.280217 q -3.96001,0 -6.89335,-2.786673 -2.78667,-2.93334 -2.78667,-6.89335 0,-3.960009 2.78667,-6.746682 2.93334,-2.93334 6.89335,-2.93334 3.96001,0 6.74668,2.93334 2.93334,2.786673 2.93334,6.746682 0,3.96001 -2.93334,6.89335 -2.78667,2.786673 -6.74668,2.786673 z m 42.82677,93.426887 q -3.22667,0 -5.42668,-2.05334 -2.05334,-2.20001 -2.05334,-5.42668 V 71.719244 q 0,-3.373341 2.05334,-5.426679 2.20001,-2.053338 5.42668,-2.053338 3.37334,0 5.42668,2.053338 2.05334,2.053338 2.05334,5.426679 v 1.613337 q 4.54668,-4.546677 11.00002,-7.186683 6.45335,-2.640006 13.93337,-2.640006 10.12002,0 18.04004,4.40001 8.06669,4.253343 12.61337,12.613362 4.69334,8.36002 4.69334,20.533386 v 36.08008 q 0,3.22667 -2.20001,5.42668 -2.05333,2.05334 -5.28001,2.05334 -3.22667,0 -5.42668,-2.05334 -2.05334,-2.20001 -2.05334,-5.42668 v -36.08008 q 0,-12.4667 -6.74668,-18.186713 -6.60001,-5.866681 -16.57337,-5.866681 -6.16001,0 -11.14669,2.493339 -4.98668,2.49334 -7.92002,6.746683 -2.93334,4.106676 -2.93334,9.533355 v 41.360097 q 0,3.22667 -2.05334,5.42668 -2.05334,2.05334 -5.42668,2.05334 z m 130.2402,0.44 q -12.17336,0 -21.70672,-5.13335 -9.38669,-5.28001 -14.81336,-14.37336 -5.28002,-9.24003 -5.28002,-21.12005 0,-12.026698 4.98668,-21.120052 5.13335,-9.240022 14.08003,-14.373367 8.94669,-5.280012 20.53338,-5.280012 11.44003,0 19.65338,5.133345 8.21336,4.986678 12.4667,13.933366 4.40001,8.80002 4.40001,20.38671 0,2.78668 -1.90667,4.69335 -1.90667,1.76 -4.84001,1.76 h -55.73347 q 1.61334,10.12003 9.24003,16.57337 7.77335,6.30669 18.92004,6.30669 4.54668,0 9.24002,-1.61334 4.84001,-1.76001 7.77335,-3.96001 2.20001,-1.61334 4.69335,-1.61334 2.64,-0.14667 4.54667,1.46667 2.49334,2.20001 2.64001,4.84001 0.14667,2.64001 -2.34667,4.54668 -4.98668,3.96001 -12.4667,6.45335 -7.33335,2.49334 -14.08003,2.49334 z m -2.20001,-68.786829 q -10.85335,0 -17.45337,6.013348 -6.60001,6.013347 -8.36002,15.546702 h 48.84011 q -1.32,-9.386688 -7.18668,-15.400035 -5.86668,-6.160015 -15.84004,-6.160015 z M 817.0381,145.05275 q -10.26669,0 -19.06671,-3.08001 -8.65335,-3.22667 -13.49336,-8.06668 -2.20001,-2.34668 -1.90667,-5.28002 0.44,-3.08 2.93334,-4.98668 2.93334,-2.34667 5.72001,-1.90667 2.93334,0.29334 4.98668,2.49334 2.49334,2.78668 7.92002,5.28001 5.57334,2.34668 12.32002,2.34668 8.50669,0 12.9067,-2.78668 4.54668,-2.78667 4.69334,-7.18668 0.14667,-4.40001 -4.25334,-7.62668 -4.25334,-3.22668 -15.69337,-5.28002 -14.81337,-2.93334 -21.56005,-8.80002 -6.60001,-5.866677 -6.60001,-14.373363 0,-7.480018 4.40001,-12.320029 4.40001,-4.986678 11.29336,-7.33335 6.89335,-2.493339 14.37336,-2.493339 9.68003,0 17.16004,3.080007 7.48002,3.080007 11.88003,8.506686 2.05334,2.346672 1.90667,4.986678 -0.14667,2.49334 -2.49334,4.253344 -2.34667,1.613337 -5.57334,1.026669 -3.22668,-0.586668 -5.42668,-2.640006 -3.66668,-3.520009 -7.92002,-4.840012 -4.25334,-1.320003 -9.82669,-1.320003 -6.45335,0 -11.00003,2.200005 -4.40001,2.200005 -4.40001,6.453349 0,2.640006 1.32001,4.840011 1.46667,2.053338 5.57334,3.813342 4.10668,1.613337 12.0267,3.226674 16.57337,3.226677 22.88005,9.240017 6.45335,5.86669 6.45335,14.52004 0,6.74668 -3.66668,12.17336 -3.52,5.42668 -10.56002,8.65335 -6.89335,3.22668 -17.30671,3.22668 z m 64.82674,34.61341 q -1.46667,0 -3.52001,-0.88 -6.45335,-2.93334 -3.52001,-9.24002 l 14.6667,-33.00008 -33.00007,-62.626811 q -1.46667,-2.786673 -0.44,-5.280012 1.17333,-2.640006 3.96001,-3.813342 2.78667,-1.173336 5.28001,-0.146667 2.49334,0.880002 3.81334,3.666675 l 26.84006,53.386787 23.61339,-53.24012 q 2.93334,-6.160014 9.24002,-3.520008 6.60002,2.786673 3.66668,9.240021 L 887.58485,175.11948 q -1.76,4.54668 -5.72001,4.54668 z m 93.86677,-34.61341 q -10.26669,0 -19.06671,-3.08001 -8.65335,-3.22667 -13.49336,-8.06668 -2.20001,-2.34668 -1.90667,-5.28002 0.44,-3.08 2.93334,-4.98668 2.93334,-2.34667 5.72001,-1.90667 2.93334,0.29334 4.98668,2.49334 2.49334,2.78668 7.92002,5.28001 5.57334,2.34668 12.32003,2.34668 8.50668,0 12.90669,-2.78668 4.54668,-2.78667 4.69335,-7.18668 0.14666,-4.40001 -4.25335,-7.62668 -4.25334,-3.22668 -15.69337,-5.28002 -14.81336,-2.93334 -21.56005,-8.80002 -6.60001,-5.866677 -6.60001,-14.373363 0,-7.480018 4.40001,-12.320029 4.40001,-4.986678 11.29336,-7.33335 6.89335,-2.493339 14.37336,-2.493339 9.68003,0 17.16004,3.080007 7.48002,3.080007 11.88002,8.506686 2.0534,2.346672 1.9067,4.986678 -0.1467,2.49334 -2.4934,4.253344 -2.3466,1.613337 -5.5733,1.026669 -3.22668,-0.586668 -5.42668,-2.640006 -3.66668,-3.520009 -7.92002,-4.840012 -4.25334,-1.320003 -9.82669,-1.320003 -6.45335,0 -11.00002,2.200005 -4.40002,2.200005 -4.40002,6.453349 0,2.640006 1.32001,4.840011 1.46667,2.053338 5.57334,3.813342 4.10668,1.613337 12.0267,3.226674 16.57337,3.226677 22.88008,9.240017 6.4533,5.86669 6.4533,14.52004 0,6.74668 -3.6667,12.17336 -3.52,5.42668 -10.55998,8.65335 -6.89335,3.22668 -17.30671,3.22668 z m 79.64009,-0.58667 q -7.3334,0 -13.2,-3.66668 -5.8667,-3.81334 -9.2401,-10.26669 -3.3733,-6.45334 -3.3733,-14.52003 V 79.785929 h -6.7467 q -3.08,0 -4.9867,-1.760004 -1.9066,-1.760004 -1.9066,-4.40001 0,-2.93334 1.9066,-4.693344 1.9067,-1.760004 4.9867,-1.760004 h 6.7467 V 46.052518 q 0,-3.226674 2.0533,-5.280013 2.0534,-2.053338 5.28,-2.053338 3.2267,0 5.2801,2.053338 2.0533,2.053339 2.0533,5.280013 v 21.120049 h 12.4667 q 3.08,0 4.9867,1.760004 1.9066,1.760004 1.9066,4.693344 0,2.640006 -1.9066,4.40001 -1.9067,1.760004 -4.9867,1.760004 h -12.4667 v 36.226751 q 0,5.86668 3.2267,9.82669 3.2266,3.96001 7.92,3.96001 h 4.9867 q 2.64,0 4.4,2.05334 1.9066,2.05334 1.9066,5.28001 0,3.22667 -2.4933,5.28001 -2.3467,2.05334 -6.16,2.05334 z m 67.32,0.58667 q -12.1733,0 -21.7067,-5.13335 -9.3867,-5.28001 -14.8134,-14.37336 -5.28,-9.24003 -5.28,-21.12005 0,-12.026698 4.9867,-21.120052 5.1334,-9.240022 14.08,-14.373367 8.9467,-5.280012 20.5334,-5.280012 11.4401,0 19.6534,5.133345 8.2134,4.986678 12.4667,13.933366 4.4,8.80002 4.4,20.38671 0,2.78668 -1.9067,4.69335 -1.9066,1.76 -4.84,1.76 h -55.7334 q 1.6133,10.12003 9.24,16.57337 7.7733,6.30669 18.92,6.30669 4.5467,0 9.2401,-1.61334 4.84,-1.76001 7.7733,-3.96001 2.2,-1.61334 4.6933,-1.61334 2.6401,-0.14667 4.5467,1.46667 2.4934,2.20001 2.64,4.84001 0.1467,2.64001 -2.3466,4.54668 -4.9867,3.96001 -12.4667,6.45335 -7.3334,2.49334 -14.0801,2.49334 z m -2.2,-68.786829 q -10.8533,0 -17.4533,6.013348 -6.6001,6.013347 -8.3601,15.546702 h 48.8401 q -1.32,-9.386688 -7.1866,-15.400035 -5.8667,-6.160015 -15.8401,-6.160015 z m 63.0669,68.346829 q -3.2267,0 -5.4267,-2.05334 -2.0533,-2.20001 -2.0533,-5.42668 V 71.865911 q 0,-3.373341 2.0533,-5.426679 2.2,-2.053338 5.4267,-2.053338 3.3733,0 5.4267,2.053338 2.0533,2.053338 2.0533,5.133345 3.8133,-3.813342 9.0934,-5.86668 5.28,-2.200005 11.44,-2.200005 15.4,0 23.1734,11.586693 4.2533,-5.426679 10.8533,-8.506686 6.6,-3.080007 14.8134,-3.080007 12.6134,0 20.5334,8.213352 7.92,8.213352 7.92,23.466721 v 41.946765 q 0,3.22667 -2.0533,5.42668 -2.0534,2.05334 -5.4267,2.05334 -3.2267,0 -5.4267,-2.05334 -2.0533,-2.20001 -2.0533,-5.42668 V 95.185965 q 0,-9.240021 -4.5467,-13.640031 -4.5467,-4.546678 -11.88,-4.546678 -7.6267,0 -12.6134,5.280013 -4.84,5.280012 -4.84,13.493364 v 41.360097 q 0,3.22667 -2.0534,5.42668 -2.0533,2.05334 -5.4266,2.05334 -3.2267,0 -5.4267,-2.05334 -2.0533,-2.20001 -2.0533,-5.42668 V 95.185965 q 0,-9.240021 -4.5467,-13.640031 -4.5467,-4.546678 -11.8801,-4.546678 -7.6266,0 -12.6133,5.280013 -4.9867,5.280012 -4.9867,13.493364 v 41.360097 q 0,3.22667 -2.0533,5.42668 -2.0534,2.05334 -5.4267,2.05334 z m 159.2803,0.44 q -10.2667,0 -19.0667,-3.08001 -8.6534,-3.22667 -13.4934,-8.06668 -2.2,-2.34668 -1.9066,-5.28002 0.44,-3.08 2.9333,-4.98668 2.9333,-2.34667 5.72,-1.90667 2.9334,0.29334 4.9867,2.49334 2.4933,2.78668 7.92,5.28001 5.5734,2.34668 12.32,2.34668 8.5067,0 12.9067,-2.78668 4.5467,-2.78667 4.6934,-7.18668 0.1467,-4.40001 -4.2534,-7.62668 -4.2533,-3.22668 -15.6933,-5.28002 -14.8134,-2.93334 -21.5601,-8.80002 -6.6,-5.866677 -6.6,-14.373363 0,-7.480018 4.4,-12.320029 4.4,-4.986678 11.2934,-7.33335 6.8933,-2.493339 14.3733,-2.493339 9.6801,0 17.1601,3.080007 7.48,3.080007 11.88,8.506686 2.0534,2.346672 1.9067,4.986678 -0.1467,2.49334 -2.4934,4.253344 -2.3466,1.613337 -5.5733,1.026669 -3.2267,-0.586668 -5.4267,-2.640006 -3.6667,-3.520009 -7.92,-4.840012 -4.2533,-1.320003 -9.8267,-1.320003 -6.4533,0 -11,2.200005 -4.4,2.200005 -4.4,6.453349 0,2.640006 1.32,4.840011 1.4666,2.053338 5.5733,3.813342 4.1067,1.613337 12.0267,3.226674 16.5734,3.226677 22.8801,9.240017 6.4533,5.86669 6.4533,14.52004 0,6.74668 -3.6667,12.17336 -3.52,5.42668 -10.56,8.65335 -6.8933,3.22668 -17.3067,3.22668 z"
     id="text1"
     style="font-weight:bold;font-size:146.667px;font-family:Comfortaa;-inkscape-font-specification:'Comfortaa Bold';fill:#8839ef"
     aria-label="feline systems" />
  <path
     d="m 960.67567,201.73535 q -4.672,0 -8.384,-2.304 -3.712,-2.368 -5.888,-6.336 -2.112,-4.032 -2.112,-9.088 0,-5.056 2.304,-9.088 2.368,-4.032 6.336,-6.336 4.032,-2.368 9.024,-2.368 4.992,0 8.96,2.368 3.968,2.304 6.272,6.336 2.368,4.032 2.368,9.088 v 14.272 q 0,1.408 -0.96,2.368 -0.896,0.896 -2.304,0.896 -1.408,0 -2.368,-0.896 -0.896,-0.96 -0.896,-2.368 v -2.368 q -2.24,2.688 -5.44,4.288 -3.136,1.536 -6.912,1.536 z m 1.28,-5.76 q 3.264,0 5.824,-1.536 2.56,-1.6 4.032,-4.288 1.472,-2.752 1.472,-6.144 0,-3.456 -1.472,-6.144 -1.472,-2.752 -4.032,-4.288 -2.56,-1.6 -5.824,-1.6 -3.2,0 -5.824,1.6 -2.56,1.536 -4.096,4.288 -1.472,2.688 -1.472,6.144 0,3.392 1.472,6.144 1.536,2.688 4.096,4.288 2.624,1.536 5.824,1.536 z m 42.04793,5.824 q -4.41598,0 -7.93598,-1.856 -3.456,-1.92 -5.504,-5.568 -1.984,-3.648 -1.984,-8.96 v -15.744 q 0,-1.408 0.896,-2.304 0.96,-0.96 2.368,-0.96 1.408,0 2.304,0.96 0.96,0.896 0.96,2.304 v 15.744 q 0,5.44 2.88,8 2.94398,2.496 7.29598,2.496 2.752,0 4.864,-1.088 2.176,-1.088 3.456,-2.944 1.28,-1.856 1.28,-4.16 v -18.048 q 0,-1.472 0.896,-2.368 0.96,-0.896 2.368,-0.896 1.472,0 2.368,0.896 0.896,0.896 0.896,2.368 v 28.544 q 0,1.408 -0.896,2.368 -0.896,0.896 -2.368,0.896 -1.408,0 -2.368,-0.896 -0.896,-0.96 -0.896,-2.368 v -0.704 q -1.984,1.984 -4.8,3.136 -2.816,1.152 -6.08,1.152 z m 41.664,-0.32 q -3.2,0 -5.76,-1.6 -2.56,-1.664 -4.032,-4.48 -1.472,-2.816 -1.472,-6.336 v -15.808 h -2.944 q -1.344,0 -2.176,-0.768 -0.832,-0.768 -0.832,-1.92 0,-1.28 0.832,-2.048 0.832,-0.768 2.176,-0.768 h 2.944 v -9.216 q 0,-1.408 0.896,-2.304 0.896,-0.896 2.304,-0.896 1.408,0 2.304,0.896 0.896,0.896 0.896,2.304 v 9.216 h 5.44 q 1.344,0 2.176,0.768 0.832,0.768 0.832,2.048 0,1.152 -0.832,1.92 -0.832,0.768 -2.176,0.768 h -5.44 v 15.808 q 0,2.56 1.408,4.288 1.408,1.728 3.456,1.728 h 2.176 q 1.152,0 1.92,0.896 0.832,0.896 0.832,2.304 0,1.408 -1.088,2.304 -1.024,0.896 -2.688,0.896 z m 16.1919,0.064 q -1.408,0 -2.368,-0.896 -0.896,-0.96 -0.896,-2.368 v -43.52 q 0,-1.472 0.896,-2.368 0.96,-0.896 2.368,-0.896 1.472,0 2.368,0.896 0.896,0.896 0.896,2.368 v 15.68 q 1.984,-1.984 4.8,-3.136 2.816,-1.152 6.08,-1.152 4.416,0 7.872,1.92 3.52,1.856 5.504,5.504 2.048,3.648 2.048,8.96 v 15.744 q 0,1.408 -0.96,2.368 -0.896,0.896 -2.304,0.896 -1.408,0 -2.368,-0.896 -0.896,-0.96 -0.896,-2.368 v -15.744 q 0,-5.44 -2.944,-7.936 -2.88,-2.56 -7.232,-2.56 -2.688,0 -4.864,1.088 -2.176,1.088 -3.456,2.944 -1.28,1.792 -1.28,4.16 v 18.048 q 0,1.408 -0.896,2.368 -0.896,0.896 -2.368,0.896 z"
     id="text2"
     style="font-weight:bold;font-size:64px;font-family:Comfortaa;-inkscape-font-specification:'Comfortaa Bold';fill:#8839ef"
     aria-label="auth" />
</svg>
