<?xml version="1.0" encoding="UTF-8" standalone="no"?>
<svg
   id="Layer_1"
   data-name="Layer 1"
   viewBox="0 0 160.77398 168.633"
   version="1.1"
   sodipodi:docname="git.svg"
   inkscape:version="1.3.2 (091e20ef0f, 2023-11-25)"
   width="160.77399"
   height="168.633"
   xml:space="preserve"
   xmlns:inkscape="http://www.inkscape.org/namespaces/inkscape"
   xmlns:sodipodi="http://sodipodi.sourceforge.net/DTD/sodipodi-0.dtd"
   xmlns="http://www.w3.org/2000/svg"
   xmlns:svg="http://www.w3.org/2000/svg"><sodipodi:namedview
     id="namedview18"
     pagecolor="#ffffff"
     bordercolor="#000000"
     borderopacity="0.25"
     inkscape:showpageshadow="2"
     inkscape:pageopacity="0.0"
     inkscape:pagecheckerboard="0"
     inkscape:deskcolor="#d1d1d1"
     inkscape:zoom="4.0000001"
     inkscape:cx="69.374998"
     inkscape:cy="86.124998"
     inkscape:window-width="2544"
     inkscape:window-height="1424"
     inkscape:window-x="0"
     inkscape:window-y="0"
     inkscape:window-maximized="1"
     inkscape:current-layer="Layer_1" /><defs
     id="defs1"><style
       id="style1">.cls-1{fill:#fd4b2d;}</style><clipPath
       clipPathUnits="userSpaceOnUse"
       id="clipPath3"><path
         class="cls-1"
         d="m 150.10699,57.803 v 82.29 c -0.0441,15.77514 -12.8448,28.54006 -28.62,28.54 h -12.11 -57.949995 -12.13 c -15.76349,-0.0165 -28.54595,-12.77656 -28.59,-28.54 v -82.29 c -0.003,-1.099483 0.0608,-2.198132 0.19,-3.29 0.14398,-1.295414 0.38126,-2.578747 0.71,-3.84 0.1,-0.41 0.22,-0.82 0.34,-1.21 0.0226,-0.102073 0.0527,-0.202344 0.09,-0.3 0.07,-0.21 0.13,-0.4 0.2,-0.59 0.07,-0.19 0.14,-0.4 0.21,-0.59 0.07,-0.19 0.16,-0.44 0.25,-0.65 0.09,-0.21 0.18,-0.43 0.26,-0.64 0.71455,-1.684189 1.585,-3.297879 2.6,-4.82 v -0.05 c 0.26,-0.37 0.53,-0.75 0.81,-1.12 0.28,-0.37 0.47,-0.61 0.7,-0.91 0.23,-0.3 0.57,-0.67 0.86,-1 0.29,-0.33 0.56,-0.63 0.86,-0.93 v 0 c 0.15058,-0.175605 0.3144,-0.339417 0.49,-0.49 1.05986,-1.031311 2.19646,-1.980704 3.4,-2.84 0.32,-0.24 0.66,-0.46 1,-0.68 0.34,-0.22 0.77,-0.49 1.17,-0.72 0.74079,-0.444634 1.50525,-0.848567 2.29,-1.21 l 0.75,-0.34 c 1.08969,-0.474426 2.20865,-0.878586 3.35,-1.21 0.44,-0.13 0.88,-0.24 1.33,-0.35 0.21381,-0.06165 0.43079,-0.11172 0.65,-0.15 1.27562,-0.277307 2.56859,-0.467744 3.87,-0.57 h 0.56 0.28 1.31 82.249995 1.3 0.28 0.56 c 1.30463,0.102988 2.60087,0.293416 3.88,0.57 0.22,0 0.43,0.09 0.65,0.15 0.45,0.11 0.88,0.22 1.32,0.35 1.14188,0.32979 2.26094,0.733988 3.35,1.21 l 0.75,0.34 c 0.78698,0.36349 1.55466,0.76736 2.3,1.21 0.39,0.23 0.78,0.47 1.16,0.72 0.38,0.25 0.69,0.44 1,0.68 1.39975,1.002654 2.70817,2.127026 3.91,3.36 0.3,0.3 0.59,0.61 0.87,0.93 0.29,0.32 0.57,0.66 0.85,1 l 0.71,0.91 c 0.28,0.37 0.54,0.75 0.8,1.12 v 0.05 c 1.0188,1.519831 1.88946,3.13389 2.6,4.82 l 0.27,0.64 0.24,0.65 c 0.08,0.19 0.15,0.39 0.22,0.59 l 0.19,0.59 c 0,0.09 0.06,0.19 0.1,0.3 0.11,0.39 0.23,0.8 0.34,1.21 0.32063,1.262539 0.55451,2.545534 0.7,3.84 0.1548,1.080325 0.24496,2.168928 0.27,3.26 z"
         id="path4"
         style="fill:#8839ef;fill-opacity:1"
         sodipodi:nodetypes="ccscccccccccssscccsssssccsccccccccccccccccccccscccccccccccccccc" /></clipPath></defs><path
     class="cls-1"
     d="m 150.10699,57.803 v 82.29 c -0.0441,15.77514 -12.8448,28.54006 -28.62,28.54 h -12.11 -57.949995 -12.13 c -15.76349,-0.0165 -28.54595,-12.77656 -28.59,-28.54 v -82.29 c -0.003,-1.099483 0.0608,-2.198132 0.19,-3.29 0.14398,-1.295414 0.38126,-2.578747 0.71,-3.84 0.1,-0.41 0.22,-0.82 0.34,-1.21 0.0226,-0.102073 0.0527,-0.202344 0.09,-0.3 0.07,-0.21 0.13,-0.4 0.2,-0.59 0.07,-0.19 0.14,-0.4 0.21,-0.59 0.07,-0.19 0.16,-0.44 0.25,-0.65 0.09,-0.21 0.18,-0.43 0.26,-0.64 0.71455,-1.684189 1.585,-3.297879 2.6,-4.82 v -0.05 c 0.26,-0.37 0.53,-0.75 0.81,-1.12 0.28,-0.37 0.47,-0.61 0.7,-0.91 0.23,-0.3 0.57,-0.67 0.86,-1 0.29,-0.33 0.56,-0.63 0.86,-0.93 v 0 c 0.15058,-0.175605 0.3144,-0.339417 0.49,-0.49 1.05986,-1.031311 2.19646,-1.980704 3.4,-2.84 0.32,-0.24 0.66,-0.46 1,-0.68 0.34,-0.22 0.77,-0.49 1.17,-0.72 0.74079,-0.444634 1.50525,-0.848567 2.29,-1.21 l 0.75,-0.34 c 1.08969,-0.474426 2.20865,-0.878586 3.35,-1.21 0.44,-0.13 0.88,-0.24 1.33,-0.35 0.21381,-0.06165 0.43079,-0.11172 0.65,-0.15 1.27562,-0.277307 2.56859,-0.467744 3.87,-0.57 h 0.56 0.28 1.31 82.249995 1.3 0.28 0.56 c 1.30463,0.102988 2.60087,0.293416 3.88,0.57 0.22,0 0.43,0.09 0.65,0.15 0.45,0.11 0.88,0.22 1.32,0.35 1.14188,0.32979 2.26094,0.733988 3.35,1.21 l 0.75,0.34 c 0.78698,0.36349 1.55466,0.76736 2.3,1.21 0.39,0.23 0.78,0.47 1.16,0.72 0.38,0.25 0.69,0.44 1,0.68 1.39975,1.002654 2.70817,2.127026 3.91,3.36 0.3,0.3 0.59,0.61 0.87,0.93 0.29,0.32 0.57,0.66 0.85,1 l 0.71,0.91 c 0.28,0.37 0.54,0.75 0.8,1.12 v 0.05 c 1.0188,1.519831 1.88946,3.13389 2.6,4.82 l 0.27,0.64 0.24,0.65 c 0.08,0.19 0.15,0.39 0.22,0.59 l 0.19,0.59 c 0,0.09 0.06,0.19 0.1,0.3 0.11,0.39 0.23,0.8 0.34,1.21 0.32063,1.262539 0.55451,2.545534 0.7,3.84 0.1548,1.080325 0.24496,2.168928 0.27,3.26 z"
     id="path12"
     style="fill:#8839ef;fill-opacity:1;stroke:none"
     sodipodi:nodetypes="ccscccccccccssscccsssssccsccccccccccccccccccccscccccccccccccccc" /><path
     style="display:inline;fill:#8839ef;fill-opacity:1;stroke:none"
     d="m 10.696995,57.803 c -35.45674,-110.502034 28.59,-28.59 28.59,-28.59"
     id="path20"
     sodipodi:nodetypes="cc"
     inkscape:label="Left Ear" /><path
     style="display:inline;fill:#8839ef;fill-opacity:1;stroke:none"
     d="m 150.07699,57.802509 c 35.45675,-110.502034 -28.59,-28.59 -28.59,-28.59"
     id="path20-5"
     sodipodi:nodetypes="cc"
     inkscape:label="Right Ear" /><style
     id="style1-6">circle,path{fill:none;stroke:#000;stroke-width:15}path{stroke-width:25}.orange{stroke:#f60}.red{stroke:#d40000}</style><g
     transform="matrix(0.56603775,0,0,0.56603775,24.084699,43.04173)"
     id="g4"
     style="mix-blend-mode:normal;fill:#8839ef;fill-opacity:1;stroke:#ffffff;stroke-opacity:1"><path
       d="M 58,168 V 70 a 50,50 0 0 1 50,-50 h 20"
       class="orange"
       id="path1"
       style="fill:#8839ef;fill-opacity:1;stroke:#ffffff;stroke-opacity:1" /><path
       d="m 58,168 v -30 a 50,50 0 0 1 50,-50 h 20"
       class="red"
       id="path2"
       style="fill:#8839ef;fill-opacity:1;stroke:#ffffff;stroke-opacity:1" /><circle
       cx="142"
       cy="20"
       r="18"
       class="orange"
       id="circle2"
       style="fill:#8839ef;fill-opacity:1;stroke:#ffffff;stroke-opacity:1" /><circle
       cx="142"
       cy="88"
       r="18"
       class="red"
       id="circle3"
       style="fill:#8839ef;fill-opacity:1;stroke:#ffffff;stroke-opacity:1" /><circle
       cx="58"
       cy="180"
       r="18"
       class="red"
       id="circle4"
       style="fill:#8839ef;fill-opacity:1;stroke:#ffffff;stroke-opacity:1" /></g></svg>
